<mxfile host="app.diagrams.net" modified="2021-07-23T04:34:10.550Z" agent="5.0 (Windows NT 10.0; Win64; x64) AppleWebKit/537.36 (KHTML, like Gecko) Chrome/92.0.4515.107 Safari/537.36" etag="Whb4773CY3b613wLDq_p" version="14.9.2" type="github" pages="3">
  <diagram name="Informasi Debitur Bermasalah" id="e7e014a7-5840-1c2e-5031-d8a46d1fe8dd">
    <mxGraphModel dx="2418" dy="1284" grid="1" gridSize="10" guides="1" tooltips="1" connect="1" arrows="1" fold="1" page="1" pageScale="1" pageWidth="1169" pageHeight="826" background="none" math="0" shadow="0">
      <root>
        <mxCell id="0" />
        <mxCell id="1" parent="0" />
        <mxCell id="2" value="Thread 1" style="swimlane;whiteSpace=wrap" parent="1" vertex="1">
          <mxGeometry x="164.5" y="128" width="280" height="1332" as="geometry" />
        </mxCell>
        <mxCell id="3" value="Core Banking System" style="swimlane;whiteSpace=wrap" parent="1" vertex="1">
          <mxGeometry x="444.5" y="128" width="280" height="1332" as="geometry" />
        </mxCell>
        <mxCell id="4" value="Aplikasi" style="swimlane;whiteSpace=wrap" parent="1" vertex="1">
          <mxGeometry x="724.5" y="128" width="365.5" height="1332" as="geometry" />
        </mxCell>
        <mxCell id="Q19Af6TD-4MYSlnBtUl4-43" value="&lt;span style=&quot;font-weight: 700&quot;&gt;Flow Chart Informasi Debitur NPL&lt;/span&gt;" style="html=1;" parent="1" vertex="1">
          <mxGeometry x="160" y="100" width="930" height="28" as="geometry" />
        </mxCell>
        <mxCell id="Q19Af6TD-4MYSlnBtUl4-102" value="" style="group" parent="1" vertex="1" connectable="0">
          <mxGeometry x="510" y="210" width="550" height="1170" as="geometry" />
        </mxCell>
        <mxCell id="Q19Af6TD-4MYSlnBtUl4-103" style="edgeStyle=orthogonalEdgeStyle;rounded=0;orthogonalLoop=1;jettySize=auto;html=1;entryX=0.5;entryY=0;entryDx=0;entryDy=0;" parent="Q19Af6TD-4MYSlnBtUl4-102" source="Q19Af6TD-4MYSlnBtUl4-104" edge="1">
          <mxGeometry relative="1" as="geometry">
            <mxPoint x="434.8837209302325" y="161.37931034482762" as="targetPoint" />
          </mxGeometry>
        </mxCell>
        <mxCell id="Q19Af6TD-4MYSlnBtUl4-104" value="Start" style="strokeWidth=2;html=1;shape=mxgraph.flowchart.start_1;whiteSpace=wrap;" parent="Q19Af6TD-4MYSlnBtUl4-102" vertex="1">
          <mxGeometry x="319.7674418604651" width="230.23255813953492" height="80.68965517241381" as="geometry" />
        </mxCell>
        <mxCell id="Q19Af6TD-4MYSlnBtUl4-106" value="Muncul Kelengkapan Data Debitur" style="shape=display;whiteSpace=wrap;html=1;fillColor=#fff2cc;strokeColor=#d6b656;" parent="Q19Af6TD-4MYSlnBtUl4-102" vertex="1">
          <mxGeometry x="319.7674418604651" y="349.6551724137931" width="220.63953488372096" height="94.13793103448276" as="geometry" />
        </mxCell>
        <mxCell id="Q19Af6TD-4MYSlnBtUl4-122" style="edgeStyle=orthogonalEdgeStyle;rounded=0;orthogonalLoop=1;jettySize=auto;html=1;exitX=0.5;exitY=1;exitDx=0;exitDy=0;entryX=0;entryY=0;entryDx=114.36522654370489;entryDy=0;entryPerimeter=0;" parent="Q19Af6TD-4MYSlnBtUl4-102" source="Q19Af6TD-4MYSlnBtUl4-107" target="Q19Af6TD-4MYSlnBtUl4-106" edge="1">
          <mxGeometry relative="1" as="geometry" />
        </mxCell>
        <mxCell id="Q19Af6TD-4MYSlnBtUl4-107" value="Menu Informasi Debitur NPL" style="rounded=0;whiteSpace=wrap;html=1;fillColor=#dae8fc;strokeColor=#6c8ebf;" parent="Q19Af6TD-4MYSlnBtUl4-102" vertex="1">
          <mxGeometry x="326.16279069767444" y="161.37931034482762" width="217.44186046511626" height="94.13793103448276" as="geometry" />
        </mxCell>
        <mxCell id="Q19Af6TD-4MYSlnBtUl4-108" value="Input Kelengkapan data yang masih belum terisi (data yang kurang)" style="rounded=0;whiteSpace=wrap;html=1;fillColor=#dae8fc;strokeColor=#6c8ebf;" parent="Q19Af6TD-4MYSlnBtUl4-102" vertex="1">
          <mxGeometry x="326.16279069767444" y="537.9310344827586" width="217.44186046511626" height="94.13793103448276" as="geometry" />
        </mxCell>
        <mxCell id="Q19Af6TD-4MYSlnBtUl4-110" style="edgeStyle=orthogonalEdgeStyle;rounded=0;orthogonalLoop=1;jettySize=auto;html=1;exitX=0;exitY=0.5;exitDx=0;exitDy=0;entryX=0;entryY=0.5;entryDx=0;entryDy=0;" parent="Q19Af6TD-4MYSlnBtUl4-102" source="Q19Af6TD-4MYSlnBtUl4-111" target="Q19Af6TD-4MYSlnBtUl4-108" edge="1">
          <mxGeometry relative="1" as="geometry">
            <Array as="points">
              <mxPoint x="243.02325581395348" y="766.551724137931" />
              <mxPoint x="243.02325581395348" y="585" />
            </Array>
          </mxGeometry>
        </mxCell>
        <mxCell id="Q19Af6TD-4MYSlnBtUl4-111" value="Simpan" style="rhombus;whiteSpace=wrap;html=1;fillColor=#f8cecc;strokeColor=#b85450;" parent="Q19Af6TD-4MYSlnBtUl4-102" vertex="1">
          <mxGeometry x="332.5581395348837" y="712.7586206896552" width="204.65116279069767" height="107.58620689655173" as="geometry" />
        </mxCell>
        <mxCell id="Q19Af6TD-4MYSlnBtUl4-112" style="edgeStyle=orthogonalEdgeStyle;rounded=0;orthogonalLoop=1;jettySize=auto;html=1;exitX=0.5;exitY=1;exitDx=0;exitDy=0;entryX=0.5;entryY=0;entryDx=0;entryDy=0;" parent="Q19Af6TD-4MYSlnBtUl4-102" source="Q19Af6TD-4MYSlnBtUl4-108" target="Q19Af6TD-4MYSlnBtUl4-111" edge="1">
          <mxGeometry relative="1" as="geometry" />
        </mxCell>
        <mxCell id="Q19Af6TD-4MYSlnBtUl4-113" value="Data Tersimpan" style="rounded=0;whiteSpace=wrap;html=1;fillColor=#dae8fc;strokeColor=#6c8ebf;" parent="Q19Af6TD-4MYSlnBtUl4-102" vertex="1">
          <mxGeometry x="326.16279069767444" y="901.0344827586209" width="217.44186046511626" height="94.13793103448276" as="geometry" />
        </mxCell>
        <mxCell id="Q19Af6TD-4MYSlnBtUl4-114" style="edgeStyle=orthogonalEdgeStyle;rounded=0;orthogonalLoop=1;jettySize=auto;html=1;entryX=0.5;entryY=0;entryDx=0;entryDy=0;" parent="Q19Af6TD-4MYSlnBtUl4-102" source="Q19Af6TD-4MYSlnBtUl4-111" target="Q19Af6TD-4MYSlnBtUl4-113" edge="1">
          <mxGeometry relative="1" as="geometry" />
        </mxCell>
        <mxCell id="Q19Af6TD-4MYSlnBtUl4-115" style="edgeStyle=orthogonalEdgeStyle;rounded=0;orthogonalLoop=1;jettySize=auto;html=1;entryX=0;entryY=0.5;entryDx=0;entryDy=0;entryPerimeter=0;" parent="Q19Af6TD-4MYSlnBtUl4-102" source="Q19Af6TD-4MYSlnBtUl4-116" target="Q19Af6TD-4MYSlnBtUl4-106" edge="1">
          <mxGeometry relative="1" as="geometry" />
        </mxCell>
        <mxCell id="Q19Af6TD-4MYSlnBtUl4-116" value="Data Core Banking System" style="shape=datastore;whiteSpace=wrap;html=1;fillColor=#d5e8d4;strokeColor=#82b366;" parent="Q19Af6TD-4MYSlnBtUl4-102" vertex="1">
          <mxGeometry y="329.48275862068976" width="127.90697674418605" height="134.48275862068965" as="geometry" />
        </mxCell>
        <mxCell id="Q19Af6TD-4MYSlnBtUl4-117" value="Ya" style="text;html=1;align=center;verticalAlign=middle;resizable=0;points=[];autosize=1;strokeColor=none;" parent="Q19Af6TD-4MYSlnBtUl4-102" vertex="1">
          <mxGeometry x="447.6744186046511" y="847.2413793103448" width="30" height="20" as="geometry" />
        </mxCell>
        <mxCell id="Q19Af6TD-4MYSlnBtUl4-118" value="Tidak" style="text;html=1;align=center;verticalAlign=middle;resizable=0;points=[];autosize=1;strokeColor=none;" parent="Q19Af6TD-4MYSlnBtUl4-102" vertex="1">
          <mxGeometry x="243.02325581395348" y="658.9655172413795" width="40" height="20" as="geometry" />
        </mxCell>
        <mxCell id="Q19Af6TD-4MYSlnBtUl4-119" value="End" style="strokeWidth=2;html=1;shape=mxgraph.flowchart.start_1;whiteSpace=wrap;" parent="Q19Af6TD-4MYSlnBtUl4-102" vertex="1">
          <mxGeometry x="319.7674418604651" y="1089.3103448275863" width="230.23255813953492" height="80.68965517241381" as="geometry" />
        </mxCell>
        <mxCell id="Q19Af6TD-4MYSlnBtUl4-120" style="edgeStyle=orthogonalEdgeStyle;rounded=0;orthogonalLoop=1;jettySize=auto;html=1;" parent="Q19Af6TD-4MYSlnBtUl4-102" source="Q19Af6TD-4MYSlnBtUl4-113" target="Q19Af6TD-4MYSlnBtUl4-119" edge="1">
          <mxGeometry relative="1" as="geometry" />
        </mxCell>
        <mxCell id="Q19Af6TD-4MYSlnBtUl4-121" style="edgeStyle=orthogonalEdgeStyle;rounded=0;orthogonalLoop=1;jettySize=auto;html=1;" parent="1" source="Q19Af6TD-4MYSlnBtUl4-106" edge="1">
          <mxGeometry relative="1" as="geometry">
            <mxPoint x="940.0872093023258" y="740" as="targetPoint" />
          </mxGeometry>
        </mxCell>
      </root>
    </mxGraphModel>
  </diagram>
  <diagram id="l3KGVOr9Yefg8bp5foLR" name="Flow Chart Informasi Agunan">
    <mxGraphModel dx="1612" dy="856" grid="1" gridSize="10" guides="1" tooltips="1" connect="1" arrows="1" fold="1" page="1" pageScale="1" pageWidth="827" pageHeight="1169" math="0" shadow="0">
      <root>
        <mxCell id="4ASLJn2MwBKxsp4oChfH-0" />
        <mxCell id="4ASLJn2MwBKxsp4oChfH-1" parent="4ASLJn2MwBKxsp4oChfH-0" />
        <mxCell id="a6FmuKCKrE_8W1aIgYfU-0" value="Thread 1" style="swimlane;whiteSpace=wrap" vertex="1" parent="4ASLJn2MwBKxsp4oChfH-1">
          <mxGeometry x="164.5" y="128" width="280" height="1332" as="geometry" />
        </mxCell>
        <mxCell id="a6FmuKCKrE_8W1aIgYfU-1" value="Core Banking System" style="swimlane;whiteSpace=wrap" vertex="1" parent="4ASLJn2MwBKxsp4oChfH-1">
          <mxGeometry x="444.5" y="128" width="280" height="1332" as="geometry" />
        </mxCell>
        <mxCell id="a6FmuKCKrE_8W1aIgYfU-2" value="Aplikasi" style="swimlane;whiteSpace=wrap" vertex="1" parent="4ASLJn2MwBKxsp4oChfH-1">
          <mxGeometry x="724.5" y="128" width="365.5" height="1332" as="geometry" />
        </mxCell>
        <mxCell id="a6FmuKCKrE_8W1aIgYfU-3" value="&lt;span style=&quot;font-weight: 700&quot;&gt;Flow Chart Informasi Agunan&lt;/span&gt;" style="html=1;" vertex="1" parent="4ASLJn2MwBKxsp4oChfH-1">
          <mxGeometry x="160" y="100" width="930" height="28" as="geometry" />
        </mxCell>
        <mxCell id="a6FmuKCKrE_8W1aIgYfU-4" value="" style="group" vertex="1" connectable="0" parent="4ASLJn2MwBKxsp4oChfH-1">
          <mxGeometry x="510" y="210" width="550" height="1170" as="geometry" />
        </mxCell>
        <mxCell id="a6FmuKCKrE_8W1aIgYfU-5" style="edgeStyle=orthogonalEdgeStyle;rounded=0;orthogonalLoop=1;jettySize=auto;html=1;entryX=0.5;entryY=0;entryDx=0;entryDy=0;" edge="1" parent="a6FmuKCKrE_8W1aIgYfU-4" source="a6FmuKCKrE_8W1aIgYfU-6">
          <mxGeometry relative="1" as="geometry">
            <mxPoint x="434.8837209302325" y="161.37931034482762" as="targetPoint" />
          </mxGeometry>
        </mxCell>
        <mxCell id="a6FmuKCKrE_8W1aIgYfU-6" value="Start" style="strokeWidth=2;html=1;shape=mxgraph.flowchart.start_1;whiteSpace=wrap;" vertex="1" parent="a6FmuKCKrE_8W1aIgYfU-4">
          <mxGeometry x="319.7674418604651" width="230.23255813953492" height="80.68965517241381" as="geometry" />
        </mxCell>
        <mxCell id="a6FmuKCKrE_8W1aIgYfU-7" value="Muncul Kelengkapan Data terkait Informasi Agunan" style="shape=display;whiteSpace=wrap;html=1;fillColor=#fff2cc;strokeColor=#d6b656;" vertex="1" parent="a6FmuKCKrE_8W1aIgYfU-4">
          <mxGeometry x="319.7674418604651" y="349.6551724137931" width="220.63953488372096" height="94.13793103448276" as="geometry" />
        </mxCell>
        <mxCell id="a6FmuKCKrE_8W1aIgYfU-8" style="edgeStyle=orthogonalEdgeStyle;rounded=0;orthogonalLoop=1;jettySize=auto;html=1;exitX=0.5;exitY=1;exitDx=0;exitDy=0;entryX=0;entryY=0;entryDx=114.36522654370489;entryDy=0;entryPerimeter=0;" edge="1" parent="a6FmuKCKrE_8W1aIgYfU-4" source="a6FmuKCKrE_8W1aIgYfU-9" target="a6FmuKCKrE_8W1aIgYfU-7">
          <mxGeometry relative="1" as="geometry" />
        </mxCell>
        <mxCell id="a6FmuKCKrE_8W1aIgYfU-9" value="Menu Informasi Agunan" style="rounded=0;whiteSpace=wrap;html=1;fillColor=#dae8fc;strokeColor=#6c8ebf;" vertex="1" parent="a6FmuKCKrE_8W1aIgYfU-4">
          <mxGeometry x="326.16279069767444" y="161.37931034482762" width="217.44186046511626" height="94.13793103448276" as="geometry" />
        </mxCell>
        <mxCell id="a6FmuKCKrE_8W1aIgYfU-10" value="Input Kelengkapan data yang masih belum terisi (data yang kurang)" style="rounded=0;whiteSpace=wrap;html=1;fillColor=#dae8fc;strokeColor=#6c8ebf;" vertex="1" parent="a6FmuKCKrE_8W1aIgYfU-4">
          <mxGeometry x="326.16279069767444" y="537.9310344827586" width="217.44186046511626" height="94.13793103448276" as="geometry" />
        </mxCell>
        <mxCell id="a6FmuKCKrE_8W1aIgYfU-11" style="edgeStyle=orthogonalEdgeStyle;rounded=0;orthogonalLoop=1;jettySize=auto;html=1;exitX=0;exitY=0.5;exitDx=0;exitDy=0;entryX=0;entryY=0.5;entryDx=0;entryDy=0;" edge="1" parent="a6FmuKCKrE_8W1aIgYfU-4" source="a6FmuKCKrE_8W1aIgYfU-12" target="a6FmuKCKrE_8W1aIgYfU-10">
          <mxGeometry relative="1" as="geometry">
            <Array as="points">
              <mxPoint x="243.02325581395348" y="766.551724137931" />
              <mxPoint x="243.02325581395348" y="585" />
            </Array>
          </mxGeometry>
        </mxCell>
        <mxCell id="a6FmuKCKrE_8W1aIgYfU-12" value="Simpan" style="rhombus;whiteSpace=wrap;html=1;fillColor=#f8cecc;strokeColor=#b85450;" vertex="1" parent="a6FmuKCKrE_8W1aIgYfU-4">
          <mxGeometry x="332.5581395348837" y="712.7586206896552" width="204.65116279069767" height="107.58620689655173" as="geometry" />
        </mxCell>
        <mxCell id="a6FmuKCKrE_8W1aIgYfU-13" style="edgeStyle=orthogonalEdgeStyle;rounded=0;orthogonalLoop=1;jettySize=auto;html=1;exitX=0.5;exitY=1;exitDx=0;exitDy=0;entryX=0.5;entryY=0;entryDx=0;entryDy=0;" edge="1" parent="a6FmuKCKrE_8W1aIgYfU-4" source="a6FmuKCKrE_8W1aIgYfU-10" target="a6FmuKCKrE_8W1aIgYfU-12">
          <mxGeometry relative="1" as="geometry" />
        </mxCell>
        <mxCell id="a6FmuKCKrE_8W1aIgYfU-14" value="Data Tersimpan" style="rounded=0;whiteSpace=wrap;html=1;fillColor=#dae8fc;strokeColor=#6c8ebf;" vertex="1" parent="a6FmuKCKrE_8W1aIgYfU-4">
          <mxGeometry x="326.16279069767444" y="901.0344827586209" width="217.44186046511626" height="94.13793103448276" as="geometry" />
        </mxCell>
        <mxCell id="a6FmuKCKrE_8W1aIgYfU-15" style="edgeStyle=orthogonalEdgeStyle;rounded=0;orthogonalLoop=1;jettySize=auto;html=1;entryX=0.5;entryY=0;entryDx=0;entryDy=0;" edge="1" parent="a6FmuKCKrE_8W1aIgYfU-4" source="a6FmuKCKrE_8W1aIgYfU-12" target="a6FmuKCKrE_8W1aIgYfU-14">
          <mxGeometry relative="1" as="geometry" />
        </mxCell>
        <mxCell id="a6FmuKCKrE_8W1aIgYfU-16" style="edgeStyle=orthogonalEdgeStyle;rounded=0;orthogonalLoop=1;jettySize=auto;html=1;entryX=0;entryY=0.5;entryDx=0;entryDy=0;entryPerimeter=0;" edge="1" parent="a6FmuKCKrE_8W1aIgYfU-4" source="a6FmuKCKrE_8W1aIgYfU-17" target="a6FmuKCKrE_8W1aIgYfU-7">
          <mxGeometry relative="1" as="geometry" />
        </mxCell>
        <mxCell id="a6FmuKCKrE_8W1aIgYfU-17" value="Data Core Banking System" style="shape=datastore;whiteSpace=wrap;html=1;fillColor=#d5e8d4;strokeColor=#82b366;" vertex="1" parent="a6FmuKCKrE_8W1aIgYfU-4">
          <mxGeometry y="329.48275862068976" width="127.90697674418605" height="134.48275862068965" as="geometry" />
        </mxCell>
        <mxCell id="a6FmuKCKrE_8W1aIgYfU-18" value="Ya" style="text;html=1;align=center;verticalAlign=middle;resizable=0;points=[];autosize=1;strokeColor=none;" vertex="1" parent="a6FmuKCKrE_8W1aIgYfU-4">
          <mxGeometry x="447.6744186046511" y="847.2413793103448" width="30" height="20" as="geometry" />
        </mxCell>
        <mxCell id="a6FmuKCKrE_8W1aIgYfU-19" value="Tidak" style="text;html=1;align=center;verticalAlign=middle;resizable=0;points=[];autosize=1;strokeColor=none;" vertex="1" parent="a6FmuKCKrE_8W1aIgYfU-4">
          <mxGeometry x="243.02325581395348" y="658.9655172413795" width="40" height="20" as="geometry" />
        </mxCell>
        <mxCell id="a6FmuKCKrE_8W1aIgYfU-20" value="End" style="strokeWidth=2;html=1;shape=mxgraph.flowchart.start_1;whiteSpace=wrap;" vertex="1" parent="a6FmuKCKrE_8W1aIgYfU-4">
          <mxGeometry x="319.7674418604651" y="1089.3103448275863" width="230.23255813953492" height="80.68965517241381" as="geometry" />
        </mxCell>
        <mxCell id="a6FmuKCKrE_8W1aIgYfU-21" style="edgeStyle=orthogonalEdgeStyle;rounded=0;orthogonalLoop=1;jettySize=auto;html=1;" edge="1" parent="a6FmuKCKrE_8W1aIgYfU-4" source="a6FmuKCKrE_8W1aIgYfU-14" target="a6FmuKCKrE_8W1aIgYfU-20">
          <mxGeometry relative="1" as="geometry" />
        </mxCell>
        <mxCell id="a6FmuKCKrE_8W1aIgYfU-22" style="edgeStyle=orthogonalEdgeStyle;rounded=0;orthogonalLoop=1;jettySize=auto;html=1;" edge="1" parent="4ASLJn2MwBKxsp4oChfH-1" source="a6FmuKCKrE_8W1aIgYfU-7">
          <mxGeometry relative="1" as="geometry">
            <mxPoint x="940.0872093023258" y="740" as="targetPoint" />
          </mxGeometry>
        </mxCell>
      </root>
    </mxGraphModel>
  </diagram>
  <diagram id="jTSbzpZR0lunKafS-o-9" name="Informasi Data Pinjaman">
    <mxGraphModel dx="1612" dy="856" grid="1" gridSize="10" guides="1" tooltips="1" connect="1" arrows="1" fold="1" page="1" pageScale="1" pageWidth="827" pageHeight="1169" math="0" shadow="0">
      <root>
        <mxCell id="DfvVClN-T3ElasIUvHko-0" />
        <mxCell id="DfvVClN-T3ElasIUvHko-1" parent="DfvVClN-T3ElasIUvHko-0" />
        <mxCell id="8lAqKW4FmrKX9Ppt0bKI-0" value="Thread 1" style="swimlane;whiteSpace=wrap" vertex="1" parent="DfvVClN-T3ElasIUvHko-1">
          <mxGeometry x="164.5" y="128" width="280" height="1332" as="geometry" />
        </mxCell>
        <mxCell id="8lAqKW4FmrKX9Ppt0bKI-1" value="Core Banking System" style="swimlane;whiteSpace=wrap" vertex="1" parent="DfvVClN-T3ElasIUvHko-1">
          <mxGeometry x="444.5" y="128" width="280" height="1332" as="geometry" />
        </mxCell>
        <mxCell id="8lAqKW4FmrKX9Ppt0bKI-2" value="Aplikasi" style="swimlane;whiteSpace=wrap" vertex="1" parent="DfvVClN-T3ElasIUvHko-1">
          <mxGeometry x="724.5" y="128" width="365.5" height="1332" as="geometry" />
        </mxCell>
        <mxCell id="8lAqKW4FmrKX9Ppt0bKI-3" value="&lt;span style=&quot;font-weight: 700&quot;&gt;Flow Chart Informasi Pinjaman&lt;/span&gt;" style="html=1;" vertex="1" parent="DfvVClN-T3ElasIUvHko-1">
          <mxGeometry x="160" y="100" width="930" height="28" as="geometry" />
        </mxCell>
        <mxCell id="8lAqKW4FmrKX9Ppt0bKI-4" value="" style="group" vertex="1" connectable="0" parent="DfvVClN-T3ElasIUvHko-1">
          <mxGeometry x="510" y="210" width="550" height="1170" as="geometry" />
        </mxCell>
        <mxCell id="8lAqKW4FmrKX9Ppt0bKI-5" style="edgeStyle=orthogonalEdgeStyle;rounded=0;orthogonalLoop=1;jettySize=auto;html=1;entryX=0.5;entryY=0;entryDx=0;entryDy=0;" edge="1" parent="8lAqKW4FmrKX9Ppt0bKI-4" source="8lAqKW4FmrKX9Ppt0bKI-6">
          <mxGeometry relative="1" as="geometry">
            <mxPoint x="434.8837209302325" y="161.37931034482762" as="targetPoint" />
          </mxGeometry>
        </mxCell>
        <mxCell id="8lAqKW4FmrKX9Ppt0bKI-6" value="Start" style="strokeWidth=2;html=1;shape=mxgraph.flowchart.start_1;whiteSpace=wrap;" vertex="1" parent="8lAqKW4FmrKX9Ppt0bKI-4">
          <mxGeometry x="319.7674418604651" width="230.23255813953492" height="80.68965517241381" as="geometry" />
        </mxCell>
        <mxCell id="8lAqKW4FmrKX9Ppt0bKI-7" value="Muncul Kelengkapan Data terkait Informasi Pinjaman" style="shape=display;whiteSpace=wrap;html=1;fillColor=#fff2cc;strokeColor=#d6b656;" vertex="1" parent="8lAqKW4FmrKX9Ppt0bKI-4">
          <mxGeometry x="319.7674418604651" y="349.6551724137931" width="220.63953488372096" height="94.13793103448276" as="geometry" />
        </mxCell>
        <mxCell id="8lAqKW4FmrKX9Ppt0bKI-8" style="edgeStyle=orthogonalEdgeStyle;rounded=0;orthogonalLoop=1;jettySize=auto;html=1;exitX=0.5;exitY=1;exitDx=0;exitDy=0;entryX=0;entryY=0;entryDx=114.36522654370489;entryDy=0;entryPerimeter=0;" edge="1" parent="8lAqKW4FmrKX9Ppt0bKI-4" source="8lAqKW4FmrKX9Ppt0bKI-9" target="8lAqKW4FmrKX9Ppt0bKI-7">
          <mxGeometry relative="1" as="geometry" />
        </mxCell>
        <mxCell id="8lAqKW4FmrKX9Ppt0bKI-9" value="Menu Informasi Pinjaman" style="rounded=0;whiteSpace=wrap;html=1;fillColor=#dae8fc;strokeColor=#6c8ebf;" vertex="1" parent="8lAqKW4FmrKX9Ppt0bKI-4">
          <mxGeometry x="326.16279069767444" y="161.37931034482762" width="217.44186046511626" height="94.13793103448276" as="geometry" />
        </mxCell>
        <mxCell id="8lAqKW4FmrKX9Ppt0bKI-10" value="Input Kelengkapan data yang masih belum terisi (data yang kurang)" style="rounded=0;whiteSpace=wrap;html=1;fillColor=#dae8fc;strokeColor=#6c8ebf;" vertex="1" parent="8lAqKW4FmrKX9Ppt0bKI-4">
          <mxGeometry x="326.16279069767444" y="537.9310344827586" width="217.44186046511626" height="94.13793103448276" as="geometry" />
        </mxCell>
        <mxCell id="8lAqKW4FmrKX9Ppt0bKI-11" style="edgeStyle=orthogonalEdgeStyle;rounded=0;orthogonalLoop=1;jettySize=auto;html=1;exitX=0;exitY=0.5;exitDx=0;exitDy=0;entryX=0;entryY=0.5;entryDx=0;entryDy=0;" edge="1" parent="8lAqKW4FmrKX9Ppt0bKI-4" source="8lAqKW4FmrKX9Ppt0bKI-12" target="8lAqKW4FmrKX9Ppt0bKI-10">
          <mxGeometry relative="1" as="geometry">
            <Array as="points">
              <mxPoint x="243.02325581395348" y="766.551724137931" />
              <mxPoint x="243.02325581395348" y="585" />
            </Array>
          </mxGeometry>
        </mxCell>
        <mxCell id="8lAqKW4FmrKX9Ppt0bKI-12" value="Simpan" style="rhombus;whiteSpace=wrap;html=1;fillColor=#f8cecc;strokeColor=#b85450;" vertex="1" parent="8lAqKW4FmrKX9Ppt0bKI-4">
          <mxGeometry x="332.5581395348837" y="712.7586206896552" width="204.65116279069767" height="107.58620689655173" as="geometry" />
        </mxCell>
        <mxCell id="8lAqKW4FmrKX9Ppt0bKI-13" style="edgeStyle=orthogonalEdgeStyle;rounded=0;orthogonalLoop=1;jettySize=auto;html=1;exitX=0.5;exitY=1;exitDx=0;exitDy=0;entryX=0.5;entryY=0;entryDx=0;entryDy=0;" edge="1" parent="8lAqKW4FmrKX9Ppt0bKI-4" source="8lAqKW4FmrKX9Ppt0bKI-10" target="8lAqKW4FmrKX9Ppt0bKI-12">
          <mxGeometry relative="1" as="geometry" />
        </mxCell>
        <mxCell id="8lAqKW4FmrKX9Ppt0bKI-14" value="Data Tersimpan" style="rounded=0;whiteSpace=wrap;html=1;fillColor=#dae8fc;strokeColor=#6c8ebf;" vertex="1" parent="8lAqKW4FmrKX9Ppt0bKI-4">
          <mxGeometry x="326.16279069767444" y="901.0344827586209" width="217.44186046511626" height="94.13793103448276" as="geometry" />
        </mxCell>
        <mxCell id="8lAqKW4FmrKX9Ppt0bKI-15" style="edgeStyle=orthogonalEdgeStyle;rounded=0;orthogonalLoop=1;jettySize=auto;html=1;entryX=0.5;entryY=0;entryDx=0;entryDy=0;" edge="1" parent="8lAqKW4FmrKX9Ppt0bKI-4" source="8lAqKW4FmrKX9Ppt0bKI-12" target="8lAqKW4FmrKX9Ppt0bKI-14">
          <mxGeometry relative="1" as="geometry" />
        </mxCell>
        <mxCell id="8lAqKW4FmrKX9Ppt0bKI-16" style="edgeStyle=orthogonalEdgeStyle;rounded=0;orthogonalLoop=1;jettySize=auto;html=1;entryX=0;entryY=0.5;entryDx=0;entryDy=0;entryPerimeter=0;" edge="1" parent="8lAqKW4FmrKX9Ppt0bKI-4" source="8lAqKW4FmrKX9Ppt0bKI-17" target="8lAqKW4FmrKX9Ppt0bKI-7">
          <mxGeometry relative="1" as="geometry" />
        </mxCell>
        <mxCell id="8lAqKW4FmrKX9Ppt0bKI-17" value="Data Core Banking System" style="shape=datastore;whiteSpace=wrap;html=1;fillColor=#d5e8d4;strokeColor=#82b366;" vertex="1" parent="8lAqKW4FmrKX9Ppt0bKI-4">
          <mxGeometry y="329.48275862068976" width="127.90697674418605" height="134.48275862068965" as="geometry" />
        </mxCell>
        <mxCell id="8lAqKW4FmrKX9Ppt0bKI-18" value="Ya" style="text;html=1;align=center;verticalAlign=middle;resizable=0;points=[];autosize=1;strokeColor=none;" vertex="1" parent="8lAqKW4FmrKX9Ppt0bKI-4">
          <mxGeometry x="447.6744186046511" y="847.2413793103448" width="30" height="20" as="geometry" />
        </mxCell>
        <mxCell id="8lAqKW4FmrKX9Ppt0bKI-19" value="Tidak" style="text;html=1;align=center;verticalAlign=middle;resizable=0;points=[];autosize=1;strokeColor=none;" vertex="1" parent="8lAqKW4FmrKX9Ppt0bKI-4">
          <mxGeometry x="243.02325581395348" y="658.9655172413795" width="40" height="20" as="geometry" />
        </mxCell>
        <mxCell id="8lAqKW4FmrKX9Ppt0bKI-20" value="End" style="strokeWidth=2;html=1;shape=mxgraph.flowchart.start_1;whiteSpace=wrap;" vertex="1" parent="8lAqKW4FmrKX9Ppt0bKI-4">
          <mxGeometry x="319.7674418604651" y="1089.3103448275863" width="230.23255813953492" height="80.68965517241381" as="geometry" />
        </mxCell>
        <mxCell id="8lAqKW4FmrKX9Ppt0bKI-21" style="edgeStyle=orthogonalEdgeStyle;rounded=0;orthogonalLoop=1;jettySize=auto;html=1;" edge="1" parent="8lAqKW4FmrKX9Ppt0bKI-4" source="8lAqKW4FmrKX9Ppt0bKI-14" target="8lAqKW4FmrKX9Ppt0bKI-20">
          <mxGeometry relative="1" as="geometry" />
        </mxCell>
        <mxCell id="8lAqKW4FmrKX9Ppt0bKI-22" style="edgeStyle=orthogonalEdgeStyle;rounded=0;orthogonalLoop=1;jettySize=auto;html=1;" edge="1" parent="DfvVClN-T3ElasIUvHko-1" source="8lAqKW4FmrKX9Ppt0bKI-7">
          <mxGeometry relative="1" as="geometry">
            <mxPoint x="940.0872093023258" y="740" as="targetPoint" />
          </mxGeometry>
        </mxCell>
      </root>
    </mxGraphModel>
  </diagram>
</mxfile>
